<svg width="24" height="24" viewBox="0 0 24 24" fill="none" xmlns="http://www.w3.org/2000/svg">
<path d="M0 6.99988L0 16.9999C0.00158786 18.3255 0.528882 19.5963 1.46622 20.5337C2.40356 21.471 3.6744 21.9983 5 21.9999L19 21.9999C20.3256 21.9983 21.5964 21.471 22.5338 20.5337C23.4711 19.5963 23.9984 18.3255 24 16.9999L24 6.99988C23.9984 5.67428 23.4711 4.40343 22.5338 3.4661C21.5964 2.52876 20.3256 2.00146 19 1.99988L5 1.99988C3.6744 2.00146 2.40356 2.52876 1.46622 3.4661C0.528882 4.40343 0.00158786 5.67428 0 6.99988H0ZM2 16.9999L2 6.99988C2 6.20423 2.31607 5.44117 2.87868 4.87856C3.44129 4.31595 4.20435 3.99988 5 3.99988H11L11 19.9999H5C4.20435 19.9999 3.44129 19.6838 2.87868 19.1212C2.31607 18.5586 2 17.7955 2 16.9999ZM22 6.99988L22 16.9999C22 17.7955 21.6839 18.5586 21.1213 19.1212C20.5587 19.6838 19.7956 19.9999 19 19.9999L13 19.9999L13 3.99988L19 3.99988C19.7956 3.99988 20.5587 4.31595 21.1213 4.87856C21.6839 5.44117 22 6.20423 22 6.99988Z" fill="#374957"/>
<path d="M7 13.0001V11.0001C7 10.7349 6.89464 10.4806 6.7071 10.293C6.51957 10.1055 6.26521 10.0001 6 10.0001C5.73478 10.0001 5.48043 10.1055 5.29289 10.293C5.10536 10.4806 5 10.7349 5 11.0001V13.0001C5 13.2653 5.10536 13.5197 5.29289 13.7072C5.48043 13.8948 5.73478 14.0001 6 14.0001C6.26521 14.0001 6.51957 13.8948 6.7071 13.7072C6.89464 13.5197 7 13.2653 7 13.0001Z" fill="#374957"/>
<path d="M17 11.0001V13.0001C17 13.2653 17.1054 13.5197 17.2929 13.7072C17.4804 13.8948 17.7348 14.0001 18 14.0001C18.2652 14.0001 18.5196 13.8948 18.7071 13.7072C18.8947 13.5197 19 13.2653 19 13.0001V11.0001C19 10.7349 18.8947 10.4806 18.7071 10.293C18.5196 10.1055 18.2652 10.0001 18 10.0001C17.7348 10.0001 17.4804 10.1055 17.2929 10.293C17.1054 10.4806 17 10.7349 17 11.0001Z" fill="#374957"/>
</svg>
